<?xml version="1.0" standalone="no"?>
<!DOCTYPE svg PUBLIC "-//W3C//DTD SVG 20010904//EN"
 "http://www.w3.org/TR/2001/REC-SVG-20010904/DTD/svg10.dtd">
<svg version="1.0" xmlns="http://www.w3.org/2000/svg"
 width="92pt" height="30pt" viewBox="0 0 560.000000 161.000000"
 preserveAspectRatio="xMidYMid meet">

<g transform="translate(0.000000,161.000000) scale(0.100000,-0.100000)"
fill="#000000" stroke="none">
<path d="M95 1596 c-41 -18 -83 -69 -90 -109 -3 -18 -5 -337 -3 -709 3 -665 3
-677 24 -704 11 -15 33 -37 48 -48 l27 -21 2699 0 2699 0 27 21 c15 11 37 33
48 48 21 27 21 38 24 717 3 764 5 733 -64 785 l-37 29 -2686 2 c-2218 2 -2691
0 -2716 -11z m1044 -305 c-18 -62 -89 -133 -149 -149 -24 -6 -47 -9 -52 -6
-12 8 -10 36 9 89 22 66 87 130 150 148 l48 14 3 -25 c2 -14 -2 -46 -9 -71z
m1811 -66 c0 -138 -1 -145 -20 -145 -19 0 -20 7 -20 145 0 138 1 145 20 145
19 0 20 -7 20 -145z m730 0 l0 -145 -25 0 c-14 0 -25 4 -25 9 0 5 -13 3 -29
-5 -68 -34 -134 42 -111 128 17 59 60 83 118 64 21 -7 22 -5 22 43 0 48 2 51
25 51 l25 0 0 -145z m1010 89 c0 -48 2 -55 14 -45 8 7 29 13 47 13 52 2 69
-29 69 -123 0 -77 -1 -79 -25 -79 -23 0 -24 3 -27 78 -3 72 -5 77 -26 80 -40
6 -52 -14 -52 -89 0 -67 -1 -69 -25 -69 l-25 0 0 145 0 145 25 0 c24 0 25 -3
25 -56z m-2741 33 c71 -25 99 -109 63 -189 -25 -56 -67 -78 -151 -78 l-61 0 0
133 c0 74 3 137 7 140 10 11 105 7 142 -6z m2591 -42 c0 -20 5 -25 26 -25 33
0 30 -33 -4 -38 -20 -3 -22 -9 -22 -62 0 -53 2 -59 22 -62 27 -4 36 -33 13
-42 -28 -10 -66 5 -76 31 -5 13 -9 48 -9 78 0 38 -4 54 -15 59 -8 3 -15 12
-15 21 0 8 7 15 15 15 8 0 15 9 15 19 0 17 12 25 43 30 4 0 7 -10 7 -24z
m-2287 -56 c19 -24 23 -99 6 -131 -6 -11 -26 -26 -46 -34 -42 -18 -94 -5 -118
29 -21 29 -19 106 3 135 35 45 118 45 155 1z m562 8 c10 -15 15 -47 15 -99 0
-76 -1 -78 -25 -78 -23 0 -24 3 -27 78 l-3 77 -30 0 -30 0 -3 -77 c-3 -75 -4
-78 -27 -78 -23 0 -24 2 -27 100 -3 98 -3 100 20 100 12 0 22 -5 22 -11 0 -8
4 -8 13 -1 31 25 80 20 102 -11z m378 -8 c22 -27 23 -101 1 -134 -23 -36 -74
-49 -117 -31 -20 8 -40 23 -46 34 -16 30 -13 104 4 130 32 44 121 45 158 1z
m210 12 c9 -10 16 -47 19 -99 l5 -84 -31 5 c-17 2 -39 0 -49 -5 -26 -14 -76 9
-83 38 -3 12 -3 32 1 44 7 23 59 50 95 50 18 0 19 3 9 21 -9 18 -17 20 -51 15
-34 -6 -39 -4 -36 11 6 33 94 36 121 4z m630 -12 c19 -24 23 -99 6 -131 -6
-11 -26 -26 -46 -34 -42 -18 -94 -5 -118 29 -19 28 -19 90 0 127 27 52 118 57
158 9z m242 8 c10 -15 15 -47 15 -99 0 -76 -1 -78 -25 -78 -23 0 -24 3 -27 78
-3 73 -4 77 -27 80 -36 6 -51 -22 -51 -95 0 -61 -1 -63 -25 -63 l-25 0 0 100
0 100 25 0 c14 0 25 -5 25 -11 0 -8 4 -8 13 -1 31 25 80 20 102 -11z m763 -3
c12 -14 22 -38 22 -55 l0 -29 -65 0 c-51 0 -65 -3 -65 -15 0 -23 45 -47 82
-43 42 4 46 -22 4 -33 -74 -20 -131 24 -131 101 0 96 92 141 153 74z m-2658
-49 l16 -70 22 73 c18 57 27 72 42 72 15 0 23 -13 36 -60 9 -33 20 -60 24 -60
4 0 14 26 22 58 11 46 18 58 36 60 27 4 28 6 -6 -103 -25 -80 -31 -90 -52 -90
-21 0 -26 9 -43 65 l-19 65 -21 -67 c-17 -59 -23 -68 -43 -68 -13 0 -24 2 -24
3 0 2 -13 47 -29 101 l-29 97 26 -3 c24 -3 28 -9 42 -73z m-1173 -90 c53 -16
133 -68 133 -86 0 -6 -20 -33 -44 -60 -75 -83 -85 -190 -27 -281 16 -25 45
-55 65 -67 20 -13 36 -28 36 -34 0 -23 -49 -117 -89 -170 -77 -104 -122 -122
-223 -88 -78 26 -133 27 -198 1 -93 -37 -143 -20 -214 70 -98 124 -152 287
-144 429 6 100 36 169 98 224 77 69 159 84 265 47 74 -25 85 -25 170 5 82 29
104 30 172 10z m2396 -236 c38 -10 39 -11 32 -47 -9 -47 -10 -48 -40 -34 -74
34 -175 1 -175 -57 0 -36 30 -63 110 -99 74 -33 126 -85 135 -135 16 -82 -40
-164 -127 -188 -50 -13 -151 -7 -191 12 -26 12 -28 16 -22 48 4 20 8 38 10 40
3 2 22 -4 45 -13 99 -39 190 -9 190 63 0 47 -22 69 -110 108 -39 18 -78 45
-99 68 -31 36 -33 42 -29 96 3 45 10 65 29 85 52 57 151 79 242 53z m-1472
-279 c49 -151 89 -276 89 -277 0 -2 -22 -3 -49 -3 l-50 0 -23 78 -24 77 -91 3
-92 3 -24 -78 -23 -78 -49 -3 c-42 -3 -47 -1 -43 15 3 10 43 136 89 281 l84
263 58 -3 59 -3 89 -275z m1739 175 l0 -45 45 0 45 0 0 -40 0 -40 -45 0 -45 0
0 -118 c0 -130 5 -142 57 -142 31 0 33 -2 33 -34 0 -38 -12 -46 -68 -46 -93 0
-122 55 -122 234 l0 105 -27 3 c-25 3 -28 7 -28 38 0 31 3 35 28 38 23 3 27 8
27 37 0 30 4 36 33 44 62 18 67 15 67 -34z m1135 -55 c54 -21 95 -98 95 -176
l0 -44 -135 0 c-146 0 -148 -1 -123 -54 23 -52 91 -74 172 -56 55 12 51 14 60
-22 8 -35 -11 -46 -93 -54 -81 -9 -140 9 -184 55 -41 43 -57 86 -57 156 0 62
38 145 80 175 51 36 123 44 185 20z m-2627 -24 l4 -28 29 28 c24 23 40 29 92
32 52 3 67 0 97 -20 53 -35 80 -97 80 -183 0 -86 -23 -141 -75 -180 -48 -38
-124 -45 -177 -17 l-37 19 -3 -96 -3 -96 -45 0 -45 0 -3 275 c-1 151 0 281 3
288 3 9 18 12 42 10 33 -3 38 -6 41 -32z m460 1 l3 -28 30 26 c38 31 67 39
130 33 40 -4 57 -12 85 -39 85 -83 83 -253 -5 -332 -58 -52 -156 -63 -201 -22
-9 8 -20 15 -23 15 -4 0 -7 -45 -7 -100 l0 -100 -45 0 -45 0 0 291 0 290 38
-3 c32 -3 37 -7 40 -31z m1472 13 c139 -71 130 -315 -14 -381 -141 -64 -286
33 -286 191 0 83 49 168 115 196 46 20 139 17 185 -6z m253 -10 l6 -29 30 29
c22 22 39 30 65 30 l36 0 0 -46 c0 -37 -3 -45 -15 -40 -25 9 -75 -15 -90 -45
-11 -20 -15 -63 -15 -154 l0 -125 -50 0 -50 0 0 198 c0 109 3 202 7 205 3 4
21 7 38 7 28 0 33 -4 38 -30z"/>
<path d="M3556 1234 c-9 -8 -19 -26 -22 -39 -8 -33 21 -84 49 -85 18 0 47 43
47 70 0 29 -29 70 -49 70 -5 0 -17 -7 -25 -16z"/>
<path d="M1850 1220 l0 -100 34 0 c22 0 45 9 62 23 23 20 28 32 28 76 1 46 -3
56 -27 77 -18 15 -41 24 -63 24 l-34 0 0 -100z"/>
<path d="M2146 1234 c-33 -33 -12 -124 29 -124 25 0 45 31 45 70 0 39 -20 70
-45 70 -7 0 -21 -7 -29 -16z"/>
<path d="M3093 1242 c-22 -14 -33 -60 -22 -89 26 -69 89 -50 89 27 0 53 -33
84 -67 62z"/>
<path d="M3332 1169 c-17 -6 -22 -15 -20 -31 6 -47 68 -25 68 24 0 20 -13 22
-48 7z"/>
<path d="M3926 1234 c-33 -33 -12 -124 29 -124 25 0 45 31 45 70 0 39 -20 70
-45 70 -7 0 -21 -7 -29 -16z"/>
<path d="M4940 1231 c-15 -29 -13 -31 30 -31 33 0 40 4 40 19 0 34 -53 43 -70
12z"/>
<path d="M1970 766 c0 -13 -41 -151 -57 -193 -4 -10 11 -13 67 -13 56 0 71 3
67 13 -16 42 -57 180 -57 193 0 7 -4 14 -10 14 -5 0 -10 -7 -10 -14z"/>
<path d="M4871 643 c-16 -16 -32 -38 -36 -50 -6 -23 -5 -23 84 -23 98 0 103 3
80 53 -23 51 -85 60 -128 20z"/>
<path d="M2441 646 c-36 -20 -50 -55 -51 -124 0 -79 18 -117 65 -132 71 -23
130 35 130 129 0 67 -18 107 -57 127 -33 17 -56 17 -87 0z"/>
<path d="M2897 640 c-34 -27 -50 -80 -45 -146 7 -88 64 -129 136 -98 45 18 65
70 60 148 -4 51 -9 63 -36 87 -38 34 -79 37 -115 9z"/>
<path d="M4157 649 c-50 -29 -65 -159 -24 -220 59 -87 162 -48 175 66 11 100
-27 165 -95 165 -21 0 -46 -5 -56 -11z"/>
</g>
</svg>
