<?xml version="1.0" standalone="no"?>
<!DOCTYPE svg PUBLIC "-//W3C//DTD SVG 20010904//EN"
 "http://www.w3.org/TR/2001/REC-SVG-20010904/DTD/svg10.dtd">
<svg version="1.0" xmlns="http://www.w3.org/2000/svg"
 width="557.000000pt" height="190.000000pt" viewBox="0 0 557.000000 190.000000"
 preserveAspectRatio="xMidYMid meet">

<g transform="translate(0.000000,190.000000) scale(0.100000,-0.100000)"
fill="#000000" stroke="none">
<path d="M247 1890 c-91 -16 -178 -86 -221 -179 -21 -45 -21 -55 -21 -761 l0
-715 24 -52 c29 -65 101 -134 166 -159 49 -19 110 -19 2595 -19 2189 0 2552 2
2595 14 67 20 146 97 163 161 10 34 12 220 10 780 l-3 735 -23 42 c-30 57 -80
105 -138 134 l-49 24 -2525 1 c-1389 1 -2546 -2 -2573 -6z m1240 -262 c10 -13
103 -248 103 -261 0 -4 -13 -7 -29 -7 -22 0 -30 6 -35 25 -6 23 -10 25 -71 25
-61 0 -65 -2 -71 -25 -5 -20 -13 -25 -36 -25 -26 0 -29 3 -22 23 10 32 84 218
95 239 11 21 52 24 66 6z m265 -81 l67 -88 3 88 c3 86 3 88 28 88 l25 0 3
-137 3 -138 -29 0 c-25 0 -38 13 -95 92 l-67 92 0 -92 0 -92 -30 0 -30 0 0
133 c0 74 3 137 7 141 20 19 53 -6 115 -87z m375 68 c43 -25 63 -65 63 -124 0
-44 -5 -56 -34 -89 -34 -37 -35 -37 -125 -40 l-91 -4 0 134 c0 74 3 138 8 142
13 14 147 0 179 -19z m279 15 c37 -14 53 -38 54 -78 0 -41 -15 -71 -41 -80
-18 -7 -18 -10 11 -55 16 -26 30 -50 30 -52 0 -3 -13 -5 -29 -5 -25 0 -34 8
-57 50 -21 38 -33 50 -51 50 -21 0 -23 -4 -23 -50 0 -47 -2 -50 -25 -50 l-25
0 0 140 0 140 64 0 c36 0 77 -5 92 -10z m309 -4 c100 -42 101 -213 1 -260
-102 -48 -206 20 -206 134 0 108 101 169 205 126z m183 -128 l3 -138 -26 0
-25 0 0 141 c0 140 0 140 23 137 21 -3 22 -6 25 -140z m232 126 c74 -30 105
-106 75 -182 -25 -63 -64 -82 -164 -82 l-81 0 0 133 c0 74 3 137 7 140 13 13
123 7 163 -9z m441 -89 c22 -55 46 -117 54 -137 l15 -38 -28 0 c-21 0 -32 7
-40 25 -11 23 -17 25 -72 25 -55 0 -61 -2 -72 -25 -8 -18 -19 -25 -39 -25
l-28 0 24 63 c13 34 33 87 45 117 12 30 26 65 31 78 7 19 15 23 40 20 30 -3
34 -8 70 -103z m293 76 c32 -30 35 -87 7 -122 -14 -18 -31 -23 -80 -27 l-61
-4 0 -49 c0 -46 -2 -49 -25 -49 l-25 0 0 141 0 141 79 -3 c67 -4 83 -8 105
-28z m245 14 c34 -17 55 -62 45 -99 -10 -43 -49 -66 -110 -66 l-54 0 0 -50 c0
-47 -2 -50 -25 -50 l-25 0 0 140 0 140 70 0 c43 0 82 -6 99 -15z m422 -8 c62
-41 81 -125 45 -194 -65 -126 -266 -72 -266 71 0 116 127 187 221 123z m236
-69 l68 -93 3 93 c3 90 3 92 27 92 l25 0 0 -140 0 -140 -25 0 c-19 0 -38 19
-92 92 l-68 93 -3 -93 c-3 -90 -3 -92 -27 -92 l-25 0 0 140 0 140 25 0 c19 0
38 -19 92 -92z m-4145 -584 c178 -98 351 -193 384 -211 103 -55 96 -72 -61
-157 l-88 -48 -71 71 -71 71 -228 -227 c-217 -217 -229 -227 -243 -208 -12 16
-14 63 -13 270 1 137 4 293 6 346 l5 96 80 18 79 18 -66 67 c-64 64 -79 88
-50 77 8 -4 160 -86 337 -183z m2774 110 c-14 -14 -16 -51 -14 -292 l3 -277
33 -3 c34 -3 42 -16 16 -26 -25 -10 -164 -7 -164 3 0 6 5 13 10 16 6 4 10 110
10 286 l0 279 -32 0 -33 1 25 14 c15 8 53 14 93 15 63 0 67 -1 53 -16z m-1613
-44 c79 -30 85 -41 42 -79 -36 -31 -79 -45 -56 -18 8 11 5 19 -12 34 -46 43
-86 55 -163 51 -61 -3 -79 -8 -115 -33 -64 -45 -94 -111 -93 -205 0 -120 59
-216 159 -265 44 -21 135 -31 190 -21 l35 7 0 67 0 67 -62 -3 -63 -2 35 19
c27 16 54 20 124 21 86 0 88 -1 73 -18 -13 -14 -17 -38 -17 -90 l0 -71 -77
-18 c-115 -27 -253 -24 -319 5 -171 77 -226 303 -111 454 37 49 120 103 181
117 60 15 184 5 249 -19z m2707 -286 l0 -285 -22 3 -23 3 -3 283 -2 282 25 0
25 0 0 -286z m-235 135 c114 -32 169 -203 105 -330 -52 -100 -184 -129 -265
-57 l-35 30 0 -112 c0 -110 0 -111 -22 -108 l-23 3 0 285 0 285 23 3 c19 3 22
-1 22 -29 l0 -32 24 22 c24 22 87 50 116 51 8 0 33 -5 55 -11z m537 1 c52 -15
96 -55 102 -93 3 -18 7 -99 8 -180 l3 -148 -25 3 c-19 2 -26 10 -28 30 l-3 27
-45 -29 c-55 -35 -102 -44 -153 -30 -89 24 -122 127 -61 189 39 38 84 51 184
51 l79 0 -6 47 c-7 66 -40 93 -111 93 -57 0 -99 -23 -111 -60 -7 -21 -39 -27
-50 -10 -3 5 0 22 7 37 32 64 125 96 210 73z m-2553 -20 c78 -39 117 -113 109
-206 -15 -178 -245 -257 -374 -129 -106 106 -66 287 76 344 44 17 147 13 189
-9z m472 -3 c100 -53 136 -188 76 -289 -67 -114 -235 -142 -334 -55 -115 101
-88 283 52 348 59 27 150 25 206 -4z m1018 5 c35 -19 77 -81 63 -93 -14 -13
-221 -89 -242 -89 -19 0 -21 -4 -16 -27 10 -43 57 -104 96 -124 42 -23 98 -24
147 -4 l36 15 -19 -21 c-47 -54 -150 -74 -222 -44 -161 68 -173 316 -18 386
53 24 131 24 175 1z m1336 -154 c38 -92 73 -170 76 -173 4 -3 19 25 34 62 99
249 116 283 141 283 13 0 24 -3 24 -7 0 -12 -211 -506 -227 -531 -31 -49 -133
-65 -133 -21 0 15 7 19 34 19 40 0 69 30 87 91 11 36 8 46 -70 229 -44 106
-81 199 -81 207 0 9 8 13 22 11 19 -2 34 -31 93 -170z m-1841 147 c-10 -8 -32
-15 -47 -15 l-28 0 22 -31 c28 -40 36 -107 16 -145 -8 -16 -31 -45 -51 -63
-20 -19 -36 -41 -36 -47 0 -7 23 -32 51 -56 78 -66 98 -123 64 -187 -32 -62
-127 -111 -215 -111 -149 0 -239 110 -164 200 34 40 65 55 142 70 44 9 60 16
53 23 -6 6 -11 25 -11 43 0 30 -2 32 -46 37 -110 12 -159 142 -86 229 46 54
91 68 231 68 112 0 123 -2 105 -15z"/>
<path d="M1433 1519 l-20 -54 39 -3 c22 -2 42 -1 44 1 3 2 -6 28 -19 58 l-23
53 -21 -55z"/>
<path d="M2000 1494 l0 -97 47 6 c35 4 53 12 70 32 53 62 8 155 -76 155 l-41
0 0 -96z"/>
<path d="M2300 1550 l0 -41 46 3 c88 6 88 70 0 76 l-46 3 0 -41z"/>
<path d="M2599 1580 c-47 -27 -48 -124 -2 -160 81 -63 178 34 128 129 -8 16
-22 31 -30 35 -24 9 -78 7 -96 -4z"/>
<path d="M3020 1494 l0 -97 47 6 c60 6 93 41 93 95 -1 59 -38 92 -104 92 l-36
0 0 -96z"/>
<path d="M3477 1521 c-9 -27 -17 -51 -17 -55 0 -3 18 -6 40 -6 22 0 40 3 40 6
0 13 -35 104 -40 104 -3 0 -13 -22 -23 -49z"/>
<path d="M3730 1550 l0 -41 46 3 c31 2 51 9 58 21 19 29 -4 52 -58 55 l-46 3
0 -41z"/>
<path d="M3990 1550 l0 -41 46 3 c54 3 77 26 58 56 -7 11 -27 18 -58 20 l-46
3 0 -41z"/>
<path d="M4389 1564 c-36 -38 -34 -107 4 -140 66 -56 147 -12 147 81 0 78 -97
116 -151 59z"/>
<path d="M4118 815 c-52 -35 -58 -51 -58 -152 0 -84 1 -91 28 -115 40 -37 65
-48 115 -48 53 0 87 23 112 76 23 48 22 141 -1 189 -35 75 -126 98 -196 50z"/>
<path d="M4665 645 c-60 -31 -72 -79 -30 -120 18 -19 35 -25 66 -25 84 0 149
53 149 121 l0 39 -77 0 c-50 0 -89 -6 -108 -15z"/>
<path d="M2054 831 c-53 -33 -67 -104 -38 -202 20 -67 53 -112 95 -129 46 -20
106 3 130 50 38 70 14 207 -46 267 -39 39 -91 44 -141 14z"/>
<path d="M2503 815 l-36 -36 5 -77 c8 -128 63 -207 143 -207 108 0 146 132 79
273 -44 90 -127 111 -191 47z"/>
<path d="M3571 834 c-13 -9 -29 -32 -37 -50 -18 -43 -19 -98 -1 -91 6 2 47 20
90 38 87 37 99 61 51 98 -32 25 -71 27 -103 5z"/>
<path d="M2973 828 c-56 -27 -50 -139 10 -205 30 -33 89 -32 116 3 35 45 22
130 -28 183 -30 32 -59 38 -98 19z"/>
<path d="M2985 441 c-97 -24 -125 -93 -62 -155 77 -78 247 -42 247 52 0 17
-15 40 -45 69 -47 45 -70 51 -140 34z"/>
</g>
</svg>
