<?xml version="1.0" standalone="no"?>
<!DOCTYPE svg PUBLIC "-//W3C//DTD SVG 20010904//EN"
 "http://www.w3.org/TR/2001/REC-SVG-20010904/DTD/svg10.dtd">
<svg version="1.0" xmlns="http://www.w3.org/2000/svg"
  viewBox="0 0 720.000000 223.000000"
 >

<g transform="translate(0.000000,223.000000) scale(0.100000,-0.100000)"
fill="#000000" stroke="none">
<path d="M138 2200 c-57 -30 -91 -66 -122 -129 -14 -31 -16 -122 -16 -957 l0
-923 25 -48 c35 -65 58 -87 121 -117 l55 -26 3397 0 3398 0 45 21 c59 28 96
64 125 121 l24 47 0 926 0 926 -25 48 c-28 56 -72 96 -133 122 -42 18 -150 19
-3440 19 l-3397 -1 -57 -29z m3402 -536 l0 -194 -25 0 -25 0 0 194 c0 177 2
195 18 199 9 2 20 2 25 0 4 -2 7 -92 7 -199z m940 1 l0 -195 -25 0 c-16 0 -25
6 -25 15 0 19 -14 19 -29 1 -32 -38 -123 -22 -155 26 -8 12 -18 42 -22 64 -14
90 41 164 121 164 24 0 47 -4 50 -10 16 -26 25 -4 25 60 l0 70 30 0 30 0 0
-195z m1160 120 c0 -43 4 -75 10 -75 6 0 10 4 10 9 0 5 15 14 34 21 41 13 75
2 105 -36 18 -23 21 -40 21 -130 0 -103 0 -104 -24 -104 -24 0 -24 2 -28 101
-2 86 -6 103 -22 115 -28 20 -56 17 -83 -8 -21 -19 -23 -30 -23 -115 0 -93 0
-93 -25 -93 l-25 0 0 195 0 195 25 0 c24 0 25 -2 25 -75z m-4332 0 c-7 -76
-36 -133 -99 -189 -47 -43 -95 -66 -139 -66 -29 0 -30 2 -30 43 0 69 50 159
116 208 45 35 113 66 148 68 5 1 6 -28 4 -64z m1072 36 c69 -35 100 -116 79
-210 -18 -86 -63 -125 -163 -141 -29 -5 -72 -6 -95 -3 l-41 6 0 183 0 183 33
4 c55 8 150 -3 187 -22z m3098 -54 c3 -21 9 -26 35 -29 44 -4 43 -32 -1 -36
l-33 -3 3 -92 c3 -88 4 -91 28 -97 29 -7 39 -37 16 -46 -22 -8 -61 3 -80 22
-12 12 -16 37 -16 110 0 92 -1 95 -25 104 -14 5 -25 14 -25 20 0 6 11 15 25
20 15 6 25 17 25 29 0 39 43 38 48 -2z m-303 -59 c23 -27 25 -37 25 -134 l0
-104 -25 0 c-25 0 -25 0 -25 93 0 107 -13 137 -60 137 -51 0 -70 -38 -70 -141
0 -88 0 -89 -25 -89 l-25 0 0 135 c0 129 1 135 20 135 11 0 23 -7 26 -15 5
-12 10 -13 20 -5 18 16 65 27 91 22 13 -2 34 -18 48 -34z m926 17 c28 -18 49
-59 49 -97 l0 -38 -95 0 c-108 0 -118 -9 -64 -62 28 -29 34 -30 84 -25 40 4
55 2 59 -9 7 -19 -66 -37 -117 -28 -79 13 -122 92 -98 181 22 83 113 122 182
78z m-3401 0 c91 -47 77 -218 -20 -252 -40 -14 -92 -9 -126 14 -49 31 -66 134
-32 196 26 50 120 72 178 42z m138 -2 c6 -10 19 -56 31 -102 11 -46 22 -86 24
-88 2 -1 18 45 36 103 29 95 34 105 54 102 18 -2 27 -19 51 -100 28 -91 46
-122 46 -80 0 9 11 53 24 97 19 65 27 81 45 83 28 4 27 -2 -17 -143 -35 -109
-41 -120 -64 -123 -23 -3 -27 2 -54 92 -15 53 -31 96 -34 96 -3 0 -18 -43 -34
-96 -28 -90 -31 -95 -55 -92 -24 3 -29 13 -63 123 -20 66 -37 126 -37 133 -1
18 37 14 47 -5z m410 1 c9 -16 11 -16 33 0 35 24 95 21 124 -8 26 -26 39 -95
33 -186 -3 -52 -5 -55 -30 -58 l-28 -3 0 97 c0 108 -11 134 -60 134 -49 0 -65
-31 -67 -134 -2 -90 -2 -91 -27 -94 l-26 -3 0 135 c0 128 1 136 20 136 10 0
23 -7 28 -16z m571 -10 c57 -48 64 -145 15 -203 -50 -60 -141 -63 -194 -6 -29
31 -39 119 -20 166 29 69 140 93 199 43z m273 15 c33 -18 48 -71 48 -169 0
-89 0 -90 -24 -90 -13 0 -26 5 -28 11 -2 6 -14 5 -33 -5 -40 -21 -67 -20 -98
4 -55 43 -38 115 33 144 22 9 51 16 65 16 36 0 39 17 10 46 -18 18 -32 24 -48
20 -12 -3 -32 -8 -43 -12 -31 -8 -41 24 -11 36 31 12 104 12 129 -1z m783 -22
c107 -107 -8 -297 -141 -231 -54 27 -76 62 -76 121 0 94 46 142 136 143 41 0
53 -5 81 -33z m-3907 -198 c92 -37 124 -36 223 2 147 57 245 41 349 -57 27
-26 50 -51 50 -55 0 -5 -20 -27 -45 -50 -96 -88 -126 -222 -76 -336 24 -53 90
-124 136 -145 14 -6 25 -15 25 -20 0 -18 -64 -135 -105 -193 -78 -109 -153
-165 -220 -165 -14 0 -53 12 -88 26 -86 36 -176 36 -274 0 -40 -14 -83 -26
-95 -26 -78 1 -195 112 -270 255 -166 320 -128 629 95 759 88 52 171 53 295 5z
m3530 -316 c23 -8 42 -17 42 -19 0 -14 -23 -94 -27 -94 -2 0 -27 7 -54 16 -69
23 -136 14 -166 -21 -13 -14 -23 -35 -23 -45 0 -32 48 -77 107 -101 153 -61
206 -129 189 -242 -22 -145 -198 -210 -393 -146 -36 12 -39 22 -22 82 8 30 14
37 27 32 150 -63 262 -36 262 63 0 39 -29 63 -130 110 -156 71 -202 166 -138
282 50 91 198 129 326 83z m-1933 -260 c47 -148 95 -295 106 -327 10 -33 19
-64 19 -68 0 -5 -30 -8 -67 -6 l-67 3 -28 93 -29 92 -98 0 c-67 0 -102 -4
-109 -12 -5 -7 -20 -50 -33 -96 l-22 -82 -69 0 c-38 0 -67 3 -65 8 3 4 51 151
107 327 56 176 104 323 107 328 2 4 40 7 83 7 l79 0 86 -267z m2257 145 l3
-63 50 -2 c28 -1 53 -2 58 -2 4 -1 7 -21 7 -46 l0 -45 -60 0 -60 0 0 -122 c0
-151 8 -172 68 -176 l42 -3 0 -44 c0 -24 -4 -47 -10 -50 -18 -11 -118 -7 -146
6 -60 30 -69 55 -74 227 l-5 157 -33 3 c-33 3 -33 4 -30 50 3 45 4 47 33 47
28 0 30 2 31 43 1 23 3 44 5 46 4 4 97 33 111 35 4 1 8 -27 10 -61z m-1691
-74 c66 -33 119 -135 119 -229 0 -105 -69 -220 -147 -246 -53 -17 -143 -7
-181 20 l-32 22 0 -120 0 -121 -60 0 -60 0 0 294 c0 161 -3 314 -6 340 l-7 46
55 0 c54 0 56 -1 62 -32 l6 -32 30 29 c52 50 153 63 221 29z m609 -3 c129 -66
159 -302 52 -414 -67 -71 -185 -90 -256 -42 l-36 24 0 -120 0 -120 -62 3 -63
3 0 340 0 339 50 0 c49 0 50 0 53 -32 3 -34 15 -41 29 -19 4 8 20 22 36 32 59
38 130 40 197 6z m1625 -10 c74 -39 109 -101 113 -201 3 -63 0 -86 -18 -129
-79 -184 -356 -194 -447 -16 -22 41 -29 154 -13 209 14 51 68 119 112 142 76
39 173 38 253 -5z m474 25 c7 -8 11 -35 9 -61 l-3 -47 -45 -3 c-35 -3 -51 -10
-72 -35 -28 -30 -28 -30 -28 -185 l0 -155 -65 0 -65 0 2 242 3 243 45 -2 c25
-1 48 -2 53 -2 4 -1 7 -17 7 -36 l0 -35 39 39 c22 22 52 41 68 44 15 2 31 5
34 6 4 0 12 -5 18 -13z m388 -7 c42 -13 97 -78 112 -132 7 -23 11 -65 9 -92
l-3 -50 -157 -3 c-152 -2 -158 -3 -158 -23 0 -12 15 -36 33 -53 39 -40 96 -51
176 -36 29 5 57 10 61 10 4 0 11 -16 17 -35 8 -25 8 -37 -1 -44 -24 -20 -109
-33 -181 -29 -60 4 -84 11 -122 34 -149 91 -135 358 22 442 59 31 116 34 192
11z"/>
<path d="M4302 1680 c-23 -28 -29 -58 -21 -103 9 -49 30 -70 70 -70 48 0 69
32 69 103 0 42 -5 61 -18 73 -26 24 -78 22 -100 -3z"/>
<path d="M2222 1802 c-9 -6 -12 -44 -10 -153 l3 -144 48 2 c96 5 147 57 147
151 0 64 -20 106 -60 127 -37 19 -111 29 -128 17z"/>
<path d="M5987 1682 c-10 -10 -17 -26 -17 -35 0 -14 11 -17 65 -17 70 0 78 7
49 48 -19 28 -74 30 -97 4z"/>
<path d="M2598 1694 c-55 -29 -58 -142 -5 -179 32 -22 55 -18 88 14 73 73 3
212 -83 165z"/>
<path d="M3714 1700 c-34 -13 -54 -50 -54 -98 0 -35 6 -49 29 -73 36 -35 64
-37 96 -4 31 30 37 95 14 141 -9 17 -51 47 -62 43 -1 0 -12 -4 -23 -9z"/>
<path d="M4002 1584 c-37 -25 -24 -84 19 -84 28 0 61 34 65 68 3 30 2 32 -29
32 -18 0 -43 -7 -55 -16z"/>
<path d="M4764 1700 c-49 -19 -69 -95 -43 -154 26 -56 108 -56 129 0 20 51 12
103 -19 135 -32 31 -35 32 -67 19z"/>
<path d="M2387 1070 c-43 -150 -67 -241 -67 -249 0 -7 28 -11 75 -11 57 0 75
3 75 14 0 7 -13 54 -30 104 -16 50 -30 99 -30 109 0 10 -4 25 -10 33 -8 13 -9
13 -13 0z"/>
<path d="M2963 915 c-49 -21 -73 -68 -73 -143 0 -105 38 -156 114 -156 71 0
116 60 116 155 0 112 -75 181 -157 144z"/>
<path d="M3574 920 c-11 -4 -33 -22 -47 -40 -24 -28 -27 -40 -27 -108 0 -93
13 -121 64 -146 36 -17 43 -18 80 -5 33 11 46 23 64 59 64 127 -24 285 -134
240z"/>
<path d="M5174 912 c-35 -27 -54 -77 -54 -137 0 -67 18 -114 55 -143 55 -43
131 -17 161 54 30 73 8 196 -41 228 -32 21 -95 20 -121 -2z"/>
<path d="M6088 924 c-28 -15 -58 -61 -58 -89 0 -12 16 -15 100 -15 94 0 100 1
100 20 0 34 -29 80 -56 90 -34 13 -54 12 -86 -6z"/>
</g>
</svg>
