<?xml version="1.0" standalone="no"?>
<!DOCTYPE svg PUBLIC "-//W3C//DTD SVG 20010904//EN"
 "http://www.w3.org/TR/2001/REC-SVG-20010904/DTD/svg10.dtd">
<svg version="1.0" xmlns="http://www.w3.org/2000/svg"
 viewBox="0 0 732.000000 221.000000"
 >
<g transform="translate(0.000000,221.000000) scale(0.100000,-0.100000)"
fill="#000000" stroke="none">
<path d="M176 2175 c-75 -30 -100 -55 -137 -131 l-29 -62 0 -871 c0 -858 0
-871 21 -926 26 -70 85 -128 156 -155 53 -20 81 -20 3471 -20 2713 0 3426 3
3459 13 62 19 127 69 160 124 l28 48 3 899 2 900 -25 53 c-31 63 -90 116 -153
137 -41 14 -399 16 -3471 16 l-3426 0 -59 -25z m806 -365 c40 -31 49 -66 46
-180 -3 -90 -5 -105 -20 -108 -16 -3 -18 5 -18 67 0 39 -4 71 -9 71 -4 0 -20
-11 -35 -25 -23 -21 -26 -32 -26 -85 0 -53 -2 -60 -20 -60 -16 0 -20 7 -21 33
-3 110 9 143 61 165 46 20 49 34 15 67 -17 18 -35 25 -62 25 -56 0 -112 -18
-139 -45 -23 -23 -24 -31 -24 -155 0 -123 -1 -130 -20 -130 -19 0 -20 7 -20
126 0 143 12 184 64 212 83 45 186 55 228 22z m1428 -41 c56 -32 80 -82 80
-169 0 -85 -24 -139 -77 -170 -28 -17 -52 -20 -139 -20 l-104 0 0 190 0 190
101 0 c85 0 107 -3 139 -21z m1185 -169 l0 -185 -32 -3 -33 -3 0 184 c0 101 3
187 7 191 4 4 19 6 33 4 l25 -3 0 -185z m903 -2 l2 -188 -29 0 c-16 0 -33 5
-36 10 -4 7 -14 5 -28 -5 -50 -35 -143 -4 -168 57 -20 50 -15 131 11 168 36
50 98 64 154 35 15 -8 30 -15 32 -15 2 0 4 30 4 66 l0 65 28 -3 27 -3 3 -187z
m1152 127 c0 -69 3 -73 34 -50 32 24 93 19 121 -10 23 -23 25 -31 25 -130 0
-58 1 -108 3 -112 1 -5 -13 -9 -30 -11 l-33 -3 0 93 c0 68 -4 100 -16 116 -21
30 -58 28 -83 -4 -18 -23 -21 -41 -21 -115 l0 -89 -30 0 -30 0 0 190 0 190 30
0 30 0 0 -65z m-148 3 c2 -36 6 -43 23 -41 40 3 48 -44 8 -49 -28 -3 -28 -4
-31 -81 -3 -83 6 -107 39 -107 12 0 19 -7 19 -19 0 -26 -50 -37 -87 -19 -27
13 -28 15 -33 118 -5 100 -6 105 -28 108 -31 5 -27 46 6 50 18 3 22 10 22 43
0 37 2 39 29 39 28 0 30 -3 33 -42z m-4302 -30 c13 -22 20 -51 20 -85 0 -46
-3 -53 -20 -53 -12 0 -21 7 -22 18 0 9 -2 26 -3 37 -1 11 -3 25 -4 32 -2 22
-32 43 -62 43 -22 0 -29 5 -29 20 0 17 7 20 50 20 46 0 52 -3 70 -32z m1555
-50 c83 -90 35 -235 -82 -245 -89 -8 -153 51 -153 140 0 95 57 151 149 144 47
-3 59 -9 86 -39z m113 33 c7 -4 22 -44 33 -87 11 -43 24 -83 28 -87 4 -4 16
28 25 71 21 97 34 117 68 109 23 -6 28 -16 44 -89 20 -87 38 -109 47 -56 9 57
28 122 39 135 12 15 44 17 53 3 3 -6 -3 -36 -14 -68 -10 -31 -29 -90 -42 -129
-21 -71 -22 -73 -55 -73 -36 0 -32 -9 -65 128 -7 28 -15 52 -19 52 -3 0 -15
-39 -25 -87 l-20 -88 -36 -3 -35 -3 -28 93 c-16 51 -34 111 -42 132 -7 22 -11
43 -8 48 7 10 35 10 52 -1z m433 -14 c4 -6 16 -3 30 7 35 24 95 21 124 -8 29
-29 37 -68 33 -171 l-3 -80 -32 -3 -33 -3 0 97 c0 77 -4 101 -17 116 -23 26
-58 22 -82 -8 -18 -23 -21 -41 -21 -115 l0 -89 -30 0 -30 0 0 128 c0 81 4 132
11 139 12 12 39 6 50 -10z m546 3 c85 -52 81 -208 -7 -253 -48 -25 -122 -18
-157 14 -53 49 -65 116 -34 185 32 69 129 96 198 54z m316 -8 c19 -19 22 -36
25 -117 2 -53 8 -95 14 -95 5 0 8 -10 6 -22 -4 -28 -42 -36 -67 -14 -12 11
-21 12 -27 6 -6 -6 -34 -13 -62 -17 -59 -7 -96 11 -113 54 -20 54 18 98 95
108 67 10 88 21 84 48 -4 31 -66 36 -93 7 -20 -22 -75 -28 -75 -7 0 20 30 57
54 68 11 5 47 7 79 6 44 -3 63 -9 80 -25z m718 13 c44 -23 69 -71 69 -130 0
-95 -65 -153 -158 -142 -108 12 -157 152 -84 239 14 16 35 34 46 38 34 14 95
11 127 -5z m201 -1 c38 27 95 21 129 -14 30 -29 30 -29 27 -137 l-3 -108 -32
-3 -33 -3 0 96 c0 111 -9 135 -49 135 -48 0 -60 -25 -63 -130 l-3 -95 -32 -3
-33 -3 0 135 c0 120 2 135 18 139 9 2 25 -3 34 -11 15 -12 20 -12 40 2z m985
-4 c38 -23 65 -71 61 -108 -3 -27 -4 -27 -97 -32 -55 -3 -96 -10 -98 -16 -2
-6 6 -23 17 -37 27 -35 69 -35 108 -2 59 49 88 14 33 -39 -60 -57 -172 -41
-205 29 -21 43 -20 108 1 152 32 68 115 93 180 53z m-4597 -144 l85 -34 3
-485 2 -484 -32 -13 c-43 -16 -67 -25 -101 -39 -40 -16 -67 -14 -202 14 -66
14 -142 30 -170 35 -94 17 -600 121 -618 126 -16 5 -17 29 -15 361 l3 356 55
12 c30 7 80 18 110 24 30 6 91 18 135 27 44 9 206 42 360 74 154 32 285 58
290 59 6 0 48 -15 95 -33z m2308 -700 c1 -171 -1 -263 -8 -271 -16 -19 -45
-11 -48 13 -4 27 -3 27 -48 -3 -73 -50 -168 -24 -211 58 -37 70 -14 208 43
258 50 44 144 49 184 9 10 -10 21 -16 24 -12 3 3 6 49 6 102 0 53 3 100 7 104
4 4 16 6 28 4 19 -3 20 -10 23 -262z m-820 215 c5 -31 -11 -45 -42 -37 -19 5
-26 13 -26 30 0 30 9 38 40 34 18 -2 26 -10 28 -27z m2601 13 c28 -6 31 -10
31 -41 0 -30 -3 -34 -17 -28 -76 31 -132 29 -177 -6 -57 -44 -26 -97 90 -156
79 -40 124 -92 124 -144 0 -90 -61 -139 -174 -139 -106 0 -157 31 -128 78 7
10 16 9 47 -3 21 -9 62 -16 92 -16 68 0 93 19 93 71 0 45 -21 66 -108 109
-101 51 -130 91 -123 170 7 82 122 130 250 105z m-3308 -34 c7 -26 10 -39 59
-215 17 -60 36 -121 41 -135 11 -24 12 -22 25 30 8 30 23 84 34 120 11 36 25
83 32 105 33 117 34 120 66 123 22 2 32 -2 35 -15 3 -10 18 -63 32 -118 15
-55 36 -130 46 -166 11 -36 19 -74 19 -83 0 -31 18 -15 29 27 41 152 91 347
91 351 0 4 16 6 36 6 30 0 35 -3 31 -17 -3 -10 -22 -74 -41 -143 -20 -69 -43
-147 -51 -175 -8 -27 -21 -76 -30 -107 -14 -48 -21 -59 -42 -64 -20 -5 -31 -2
-45 16 -10 12 -18 29 -18 38 0 9 -9 46 -20 82 -11 36 -30 103 -43 149 -13 47
-29 87 -35 89 -7 2 -12 -4 -12 -13 0 -24 -91 -338 -102 -352 -12 -15 -37 -17
-56 -4 -11 7 -50 124 -92 276 -5 17 -20 68 -34 115 -33 110 -33 112 6 108 24
-2 33 -9 39 -28z m3506 -50 c1 -19 2 -40 2 -47 1 -7 20 -13 44 -15 35 -2 43
-7 45 -25 3 -21 -1 -23 -42 -23 l-46 0 0 -119 c0 -132 8 -151 59 -151 35 0 43
-8 30 -31 -14 -27 -88 -26 -117 1 -28 27 -32 43 -35 180 l-2 115 -30 5 c-27 5
-31 10 -26 39 0 5 13 11 29 13 24 3 27 7 28 41 2 65 58 80 61 17z m-2464 -62
c29 -15 56 -47 63 -72 2 -12 3 -82 2 -156 l-3 -135 -25 0 -25 0 -5 136 c-6
164 -15 182 -88 177 -35 -2 -49 -9 -65 -29 -17 -23 -19 -42 -18 -147 2 -111 0
-122 -18 -131 -11 -6 -27 -8 -36 -5 -13 6 -15 29 -13 183 3 165 4 176 22 179
11 3 26 -4 33 -14 12 -17 15 -17 51 4 41 24 92 28 125 10z m830 -8 c131 -62
122 -294 -13 -350 -42 -18 -140 -9 -172 15 -54 41 -73 83 -73 159 1 88 20 127
83 167 56 35 113 38 175 9z m890 1 c8 -6 12 -22 9 -36 -3 -20 -7 -23 -22 -15
-29 15 -116 12 -130 -4 -26 -32 -8 -60 59 -92 117 -56 139 -109 72 -175 -37
-37 -42 -39 -100 -39 -78 0 -101 11 -101 50 0 35 -1 34 36 15 51 -26 124 -16
138 20 10 28 -6 46 -77 81 -82 40 -96 56 -97 105 0 44 25 78 71 96 39 15 122
11 142 -6z m1146 -2 c70 -42 85 -73 85 -169 0 -63 -4 -81 -24 -112 -34 -51
-86 -78 -149 -78 -61 0 -97 16 -138 63 -50 57 -55 162 -11 234 46 76 164 107
237 62z m359 -15 c3 -29 1 -30 -30 -26 -26 3 -38 -2 -58 -23 -23 -25 -25 -35
-30 -152 -4 -101 -8 -128 -21 -136 -9 -6 -24 -7 -33 -4 -15 6 -16 26 -14 184
l3 178 27 3 c19 2 28 -2 33 -18 6 -20 7 -20 38 5 44 35 81 30 85 -11z m283 14
c44 -24 82 -99 77 -151 l-3 -32 -120 -3 c-66 -1 -123 -6 -128 -11 -5 -5 1 -27
12 -49 15 -29 30 -44 54 -51 35 -12 113 -5 123 10 12 19 34 8 34 -17 0 -32
-48 -54 -121 -54 -105 0 -169 70 -169 185 0 146 127 237 241 173z m-3843 -170
c2 -172 2 -177 -19 -183 -11 -4 -25 -3 -31 3 -11 11 -14 335 -3 352 4 6 17 10
28 8 21 -3 22 -7 25 -180z m1365 135 c8 -27 25 -87 38 -135 13 -49 26 -88 29
-88 4 0 21 48 39 108 48 161 50 164 80 160 23 -3 28 -12 53 -103 43 -153 51
-175 60 -175 4 0 8 8 8 19 0 21 55 235 65 250 7 13 55 15 55 3 0 -24 -104
-348 -114 -354 -43 -28 -58 1 -116 221 -6 24 -15 40 -19 35 -5 -5 -21 -49 -36
-99 -14 -49 -32 -104 -38 -122 -12 -35 -44 -50 -65 -30 -10 11 -53 142 -92
282 -5 17 -12 40 -15 53 -7 19 -4 22 23 22 29 0 32 -4 45 -47z"/>
<path d="M2240 1600 l0 -130 58 0 c99 0 135 45 120 153 -11 83 -38 107 -120
107 l-58 0 0 -130z"/>
<path d="M4332 1633 c-34 -14 -52 -95 -30 -136 38 -73 114 -54 133 33 14 63
-48 125 -103 103z"/>
<path d="M2615 1615 c-47 -46 -21 -165 35 -165 72 0 108 106 55 164 -30 33
-59 33 -90 1z"/>
<path d="M3725 1616 c-19 -19 -25 -35 -25 -69 0 -90 76 -129 124 -64 61 82
-28 204 -99 133z"/>
<path d="M4057 1528 c-46 -12 -64 -40 -41 -62 22 -22 56 -20 83 5 22 21 26 60
6 65 -5 1 -27 -3 -48 -8z"/>
<path d="M4784 1632 c-22 -15 -44 -58 -44 -85 0 -42 27 -86 57 -93 34 -9 54 4
76 49 16 31 17 42 7 72 -17 51 -64 79 -96 57z"/>
<path d="M5962 1624 c-41 -29 -28 -44 38 -44 64 0 72 8 40 40 -24 24 -48 25
-78 4z"/>
<path d="M884 1247 c-2 -7 -3 -58 -2 -113 l3 -99 125 0 125 0 3 113 3 112
-126 0 c-95 0 -127 -3 -131 -13z"/>
<path d="M678 1207 l-57 -10 -3 -76 c-2 -42 -1 -80 3 -84 3 -4 53 -6 110 -5
l104 3 3 93 3 92 -53 -1 c-29 -1 -79 -6 -110 -12z"/>
<path d="M619 986 c-2 -2 -2 -37 1 -78 l5 -73 85 -12 c143 -19 130 -27 130 77
l0 90 -108 0 c-60 0 -111 -2 -113 -4z"/>
<path d="M880 900 c0 -85 1 -90 23 -94 60 -14 196 -36 215 -36 21 0 22 4 22
110 l0 110 -130 0 -130 0 0 -90z"/>
<path d="M3580 861 c-44 -12 -70 -65 -70 -141 0 -57 4 -71 24 -93 48 -52 124
-46 163 12 18 26 23 48 23 95 0 53 -4 66 -27 93 -30 33 -71 46 -113 34z"/>
<path d="M3956 827 c-21 -28 -26 -45 -26 -95 0 -76 14 -107 55 -127 43 -20 80
-19 115 2 38 22 50 52 50 128 0 54 -4 68 -26 94 -23 28 -31 31 -84 31 -55 0
-61 -2 -84 -33z"/>
<path d="M6007 849 c-29 -17 -47 -65 -47 -128 0 -49 4 -65 26 -90 43 -52 124
-54 170 -4 21 22 24 36 24 95 0 70 -10 103 -39 125 -19 15 -109 16 -134 2z"/>
<path d="M6703 862 c-27 -4 -75 -59 -71 -81 3 -13 18 -16 88 -16 82 0 85 1 88
23 7 45 -48 83 -105 74z"/>
</g>
</svg>
